<mxfile host="app.diagrams.net" modified="2024-03-01T18:04:32.094Z" agent="Mozilla/5.0 (Windows NT 10.0; Win64; x64) AppleWebKit/537.36 (KHTML, like Gecko) Chrome/122.0.0.0 Safari/537.36" etag="6_fvWzBNZD5XFlimq584" version="23.1.7" type="device">
  <diagram name="1 oldal" id="piJF8_BZ4FbkOGlX9JzV">
    <mxGraphModel dx="1430" dy="757" grid="1" gridSize="10" guides="1" tooltips="1" connect="1" arrows="1" fold="1" page="1" pageScale="1" pageWidth="827" pageHeight="1169" math="0" shadow="0">
      <root>
        <mxCell id="0" />
        <mxCell id="1" parent="0" />
        <mxCell id="cnn6BXx1e72-K7ZhZsLI-1" value="" style="group" vertex="1" connectable="0" parent="1">
          <mxGeometry x="361" y="212.00272317073177" width="164" height="82" as="geometry" />
        </mxCell>
        <mxCell id="cnn6BXx1e72-K7ZhZsLI-2" value="&lt;font face=&quot;Helvetica&quot;&gt;Weboldal üzemelése, adatok kezelése&lt;/font&gt;" style="rounded=0;whiteSpace=wrap;html=1;" vertex="1" parent="cnn6BXx1e72-K7ZhZsLI-1">
          <mxGeometry width="164" height="82" as="geometry" />
        </mxCell>
        <mxCell id="cnn6BXx1e72-K7ZhZsLI-3" value="" style="endArrow=none;html=1;rounded=0;exitX=0;exitY=0.25;exitDx=0;exitDy=0;entryX=1;entryY=0.25;entryDx=0;entryDy=0;" edge="1" parent="cnn6BXx1e72-K7ZhZsLI-1" source="cnn6BXx1e72-K7ZhZsLI-2" target="cnn6BXx1e72-K7ZhZsLI-2">
          <mxGeometry width="50" height="50" relative="1" as="geometry">
            <mxPoint x="54.66666666666667" y="68.33333333333333" as="sourcePoint" />
            <mxPoint x="123" as="targetPoint" />
          </mxGeometry>
        </mxCell>
        <mxCell id="cnn6BXx1e72-K7ZhZsLI-4" value="" style="endArrow=none;html=1;rounded=0;exitX=0.25;exitY=0;exitDx=0;exitDy=0;" edge="1" parent="cnn6BXx1e72-K7ZhZsLI-1" source="cnn6BXx1e72-K7ZhZsLI-2">
          <mxGeometry width="50" height="50" relative="1" as="geometry">
            <mxPoint x="41" y="-6.833333333333334" as="sourcePoint" />
            <mxPoint x="41" y="20.5" as="targetPoint" />
          </mxGeometry>
        </mxCell>
        <mxCell id="cnn6BXx1e72-K7ZhZsLI-5" value="&lt;font face=&quot;Helvetica&quot; style=&quot;font-size: 12px;&quot;&gt;Szerver&lt;/font&gt;" style="text;html=1;align=center;verticalAlign=middle;resizable=0;points=[];autosize=1;strokeColor=none;fillColor=none;" vertex="1" parent="cnn6BXx1e72-K7ZhZsLI-1">
          <mxGeometry x="69.99666666666667" y="-5.003333333333334" width="60" height="30" as="geometry" />
        </mxCell>
        <mxCell id="cnn6BXx1e72-K7ZhZsLI-6" value="&lt;font style=&quot;font-size: 11px;&quot;&gt;1.&lt;/font&gt;" style="text;html=1;align=center;verticalAlign=middle;resizable=0;points=[];autosize=1;strokeColor=none;fillColor=none;" vertex="1" parent="cnn6BXx1e72-K7ZhZsLI-1">
          <mxGeometry x="8" y="-5" width="30" height="30" as="geometry" />
        </mxCell>
        <mxCell id="cnn6BXx1e72-K7ZhZsLI-7" style="edgeStyle=orthogonalEdgeStyle;rounded=0;orthogonalLoop=1;jettySize=auto;html=1;entryX=0;entryY=0.75;entryDx=0;entryDy=0;" edge="1" parent="1" source="cnn6BXx1e72-K7ZhZsLI-8" target="cnn6BXx1e72-K7ZhZsLI-2">
          <mxGeometry relative="1" as="geometry" />
        </mxCell>
        <mxCell id="cnn6BXx1e72-K7ZhZsLI-8" value="Felhasználó" style="ellipse;whiteSpace=wrap;html=1;" vertex="1" parent="1">
          <mxGeometry x="231" y="94.00272317073177" width="90" height="60" as="geometry" />
        </mxCell>
        <mxCell id="cnn6BXx1e72-K7ZhZsLI-16" value="" style="group" vertex="1" connectable="0" parent="1">
          <mxGeometry x="301" y="314.00272317073177" width="114" height="30.000000000000057" as="geometry" />
        </mxCell>
        <mxCell id="cnn6BXx1e72-K7ZhZsLI-17" value="&amp;nbsp;D1" style="html=1;dashed=0;whiteSpace=wrap;shape=mxgraph.dfd.dataStoreID;align=left;spacingLeft=3;points=[[0,0],[0.5,0],[1,0],[0,0.5],[1,0.5],[0,1],[0.5,1],[1,1]];" vertex="1" parent="cnn6BXx1e72-K7ZhZsLI-16">
          <mxGeometry width="100" height="30" as="geometry" />
        </mxCell>
        <mxCell id="cnn6BXx1e72-K7ZhZsLI-18" value="" style="endArrow=none;html=1;rounded=0;entryX=0.078;entryY=0.005;entryDx=0;entryDy=0;entryPerimeter=0;exitX=0.077;exitY=1.001;exitDx=0;exitDy=0;exitPerimeter=0;" edge="1" parent="cnn6BXx1e72-K7ZhZsLI-16">
          <mxGeometry width="50" height="50" relative="1" as="geometry">
            <mxPoint x="4.699999999999932" y="30.000000000000057" as="sourcePoint" />
            <mxPoint x="4.7999999999999545" y="0.12000000000000455" as="targetPoint" />
          </mxGeometry>
        </mxCell>
        <mxCell id="cnn6BXx1e72-K7ZhZsLI-19" value="Felhasználók" style="text;html=1;align=center;verticalAlign=middle;resizable=0;points=[];autosize=1;strokeColor=none;fillColor=none;" vertex="1" parent="cnn6BXx1e72-K7ZhZsLI-16">
          <mxGeometry x="24" width="90" height="30" as="geometry" />
        </mxCell>
        <mxCell id="cnn6BXx1e72-K7ZhZsLI-20" value="" style="group" vertex="1" connectable="0" parent="1">
          <mxGeometry x="301" y="364.00272317073177" width="114" height="30.000000000000057" as="geometry" />
        </mxCell>
        <mxCell id="cnn6BXx1e72-K7ZhZsLI-21" value="&amp;nbsp;D2" style="html=1;dashed=0;whiteSpace=wrap;shape=mxgraph.dfd.dataStoreID;align=left;spacingLeft=3;points=[[0,0],[0.5,0],[1,0],[0,0.5],[1,0.5],[0,1],[0.5,1],[1,1]];" vertex="1" parent="cnn6BXx1e72-K7ZhZsLI-20">
          <mxGeometry width="100" height="30" as="geometry" />
        </mxCell>
        <mxCell id="cnn6BXx1e72-K7ZhZsLI-22" value="" style="endArrow=none;html=1;rounded=0;entryX=0.078;entryY=0.005;entryDx=0;entryDy=0;entryPerimeter=0;exitX=0.077;exitY=1.001;exitDx=0;exitDy=0;exitPerimeter=0;" edge="1" parent="cnn6BXx1e72-K7ZhZsLI-20">
          <mxGeometry width="50" height="50" relative="1" as="geometry">
            <mxPoint x="4.699999999999932" y="30.000000000000057" as="sourcePoint" />
            <mxPoint x="4.7999999999999545" y="0.12000000000000455" as="targetPoint" />
          </mxGeometry>
        </mxCell>
        <mxCell id="cnn6BXx1e72-K7ZhZsLI-23" value="Kapcsolatok" style="text;html=1;align=center;verticalAlign=middle;resizable=0;points=[];autosize=1;strokeColor=none;fillColor=none;" vertex="1" parent="cnn6BXx1e72-K7ZhZsLI-20">
          <mxGeometry x="24" width="90" height="30" as="geometry" />
        </mxCell>
        <mxCell id="cnn6BXx1e72-K7ZhZsLI-24" value="" style="group" vertex="1" connectable="0" parent="1">
          <mxGeometry x="301" y="414.00272317073177" width="104" height="30.000000000000057" as="geometry" />
        </mxCell>
        <mxCell id="cnn6BXx1e72-K7ZhZsLI-25" value="&amp;nbsp;D3" style="html=1;dashed=0;whiteSpace=wrap;shape=mxgraph.dfd.dataStoreID;align=left;spacingLeft=3;points=[[0,0],[0.5,0],[1,0],[0,0.5],[1,0.5],[0,1],[0.5,1],[1,1]];" vertex="1" parent="cnn6BXx1e72-K7ZhZsLI-24">
          <mxGeometry width="100" height="30" as="geometry" />
        </mxCell>
        <mxCell id="cnn6BXx1e72-K7ZhZsLI-26" value="" style="endArrow=none;html=1;rounded=0;entryX=0.078;entryY=0.005;entryDx=0;entryDy=0;entryPerimeter=0;exitX=0.077;exitY=1.001;exitDx=0;exitDy=0;exitPerimeter=0;" edge="1" parent="cnn6BXx1e72-K7ZhZsLI-24">
          <mxGeometry width="50" height="50" relative="1" as="geometry">
            <mxPoint x="4.699999999999932" y="30.000000000000057" as="sourcePoint" />
            <mxPoint x="4.7999999999999545" y="0.12000000000000455" as="targetPoint" />
          </mxGeometry>
        </mxCell>
        <mxCell id="cnn6BXx1e72-K7ZhZsLI-27" value="Üzenetek" style="text;html=1;align=center;verticalAlign=middle;resizable=0;points=[];autosize=1;strokeColor=none;fillColor=none;" vertex="1" parent="cnn6BXx1e72-K7ZhZsLI-24">
          <mxGeometry x="34" width="70" height="30" as="geometry" />
        </mxCell>
        <mxCell id="cnn6BXx1e72-K7ZhZsLI-28" value="" style="group" vertex="1" connectable="0" parent="1">
          <mxGeometry x="301" y="464.00272317073177" width="104" height="30.000000000000057" as="geometry" />
        </mxCell>
        <mxCell id="cnn6BXx1e72-K7ZhZsLI-29" value="&amp;nbsp;D4" style="html=1;dashed=0;whiteSpace=wrap;shape=mxgraph.dfd.dataStoreID;align=left;spacingLeft=3;points=[[0,0],[0.5,0],[1,0],[0,0.5],[1,0.5],[0,1],[0.5,1],[1,1]];" vertex="1" parent="cnn6BXx1e72-K7ZhZsLI-28">
          <mxGeometry width="100" height="30" as="geometry" />
        </mxCell>
        <mxCell id="cnn6BXx1e72-K7ZhZsLI-30" value="" style="endArrow=none;html=1;rounded=0;entryX=0.078;entryY=0.005;entryDx=0;entryDy=0;entryPerimeter=0;exitX=0.077;exitY=1.001;exitDx=0;exitDy=0;exitPerimeter=0;" edge="1" parent="cnn6BXx1e72-K7ZhZsLI-28">
          <mxGeometry width="50" height="50" relative="1" as="geometry">
            <mxPoint x="4.699999999999932" y="30.000000000000057" as="sourcePoint" />
            <mxPoint x="4.7999999999999545" y="0.12000000000000455" as="targetPoint" />
          </mxGeometry>
        </mxCell>
        <mxCell id="cnn6BXx1e72-K7ZhZsLI-31" value="Posztok" style="text;html=1;align=center;verticalAlign=middle;resizable=0;points=[];autosize=1;strokeColor=none;fillColor=none;" vertex="1" parent="cnn6BXx1e72-K7ZhZsLI-28">
          <mxGeometry x="34" width="70" height="30" as="geometry" />
        </mxCell>
        <mxCell id="cnn6BXx1e72-K7ZhZsLI-32" value="" style="group" vertex="1" connectable="0" parent="1">
          <mxGeometry x="481" y="414.00272317073177" width="114" height="30" as="geometry" />
        </mxCell>
        <mxCell id="cnn6BXx1e72-K7ZhZsLI-33" value="&amp;nbsp;D5" style="html=1;dashed=0;whiteSpace=wrap;shape=mxgraph.dfd.dataStoreID;align=left;spacingLeft=3;points=[[0,0],[0.5,0],[1,0],[0,0.5],[1,0.5],[0,1],[0.5,1],[1,1]];" vertex="1" parent="cnn6BXx1e72-K7ZhZsLI-32">
          <mxGeometry width="100" height="30" as="geometry" />
        </mxCell>
        <mxCell id="cnn6BXx1e72-K7ZhZsLI-34" value="" style="endArrow=none;html=1;rounded=0;entryX=0.078;entryY=0.005;entryDx=0;entryDy=0;entryPerimeter=0;exitX=0.077;exitY=1.001;exitDx=0;exitDy=0;exitPerimeter=0;" edge="1" parent="cnn6BXx1e72-K7ZhZsLI-32">
          <mxGeometry width="50" height="50" relative="1" as="geometry">
            <mxPoint x="4.699999999999932" y="30" as="sourcePoint" />
            <mxPoint x="4.7999999999999545" y="0.12000000000000455" as="targetPoint" />
          </mxGeometry>
        </mxCell>
        <mxCell id="cnn6BXx1e72-K7ZhZsLI-35" value="Kommentek" style="text;html=1;align=center;verticalAlign=middle;resizable=0;points=[];autosize=1;strokeColor=none;fillColor=none;" vertex="1" parent="cnn6BXx1e72-K7ZhZsLI-32">
          <mxGeometry x="24" width="90" height="30" as="geometry" />
        </mxCell>
        <mxCell id="cnn6BXx1e72-K7ZhZsLI-36" value="" style="group" vertex="1" connectable="0" parent="1">
          <mxGeometry x="481" y="464.00272317073177" width="109" height="30.000000000000057" as="geometry" />
        </mxCell>
        <mxCell id="cnn6BXx1e72-K7ZhZsLI-37" value="&amp;nbsp;D8" style="html=1;dashed=0;whiteSpace=wrap;shape=mxgraph.dfd.dataStoreID;align=left;spacingLeft=3;points=[[0,0],[0.5,0],[1,0],[0,0.5],[1,0.5],[0,1],[0.5,1],[1,1]];" vertex="1" parent="cnn6BXx1e72-K7ZhZsLI-36">
          <mxGeometry width="100" height="30" as="geometry" />
        </mxCell>
        <mxCell id="cnn6BXx1e72-K7ZhZsLI-38" value="" style="endArrow=none;html=1;rounded=0;entryX=0.078;entryY=0.005;entryDx=0;entryDy=0;entryPerimeter=0;exitX=0.077;exitY=1.001;exitDx=0;exitDy=0;exitPerimeter=0;" edge="1" parent="cnn6BXx1e72-K7ZhZsLI-36">
          <mxGeometry width="50" height="50" relative="1" as="geometry">
            <mxPoint x="4.699999999999932" y="30.000000000000057" as="sourcePoint" />
            <mxPoint x="4.7999999999999545" y="0.12000000000000455" as="targetPoint" />
          </mxGeometry>
        </mxCell>
        <mxCell id="cnn6BXx1e72-K7ZhZsLI-39" value="Fényképek" style="text;html=1;align=center;verticalAlign=middle;resizable=0;points=[];autosize=1;strokeColor=none;fillColor=none;" vertex="1" parent="cnn6BXx1e72-K7ZhZsLI-36">
          <mxGeometry x="29" width="80" height="30" as="geometry" />
        </mxCell>
        <mxCell id="cnn6BXx1e72-K7ZhZsLI-40" value="" style="group" vertex="1" connectable="0" parent="1">
          <mxGeometry x="481" y="314.00272317073177" width="104" height="30.000000000000057" as="geometry" />
        </mxCell>
        <mxCell id="cnn6BXx1e72-K7ZhZsLI-41" value="&amp;nbsp;D7" style="html=1;dashed=0;whiteSpace=wrap;shape=mxgraph.dfd.dataStoreID;align=left;spacingLeft=3;points=[[0,0],[0.5,0],[1,0],[0,0.5],[1,0.5],[0,1],[0.5,1],[1,1]];" vertex="1" parent="cnn6BXx1e72-K7ZhZsLI-40">
          <mxGeometry width="100" height="30" as="geometry" />
        </mxCell>
        <mxCell id="cnn6BXx1e72-K7ZhZsLI-42" value="" style="endArrow=none;html=1;rounded=0;entryX=0.078;entryY=0.005;entryDx=0;entryDy=0;entryPerimeter=0;exitX=0.077;exitY=1.001;exitDx=0;exitDy=0;exitPerimeter=0;" edge="1" parent="cnn6BXx1e72-K7ZhZsLI-40">
          <mxGeometry width="50" height="50" relative="1" as="geometry">
            <mxPoint x="4.699999999999932" y="30.000000000000057" as="sourcePoint" />
            <mxPoint x="4.7999999999999545" y="0.12000000000000455" as="targetPoint" />
          </mxGeometry>
        </mxCell>
        <mxCell id="cnn6BXx1e72-K7ZhZsLI-43" value="Albumok" style="text;html=1;align=center;verticalAlign=middle;resizable=0;points=[];autosize=1;strokeColor=none;fillColor=none;" vertex="1" parent="cnn6BXx1e72-K7ZhZsLI-40">
          <mxGeometry x="34" width="70" height="30" as="geometry" />
        </mxCell>
        <mxCell id="cnn6BXx1e72-K7ZhZsLI-44" value="" style="group" vertex="1" connectable="0" parent="1">
          <mxGeometry x="481" y="364.00272317073177" width="109" height="30.000000000000057" as="geometry" />
        </mxCell>
        <mxCell id="cnn6BXx1e72-K7ZhZsLI-45" value="&amp;nbsp;D6" style="html=1;dashed=0;whiteSpace=wrap;shape=mxgraph.dfd.dataStoreID;align=left;spacingLeft=3;points=[[0,0],[0.5,0],[1,0],[0,0.5],[1,0.5],[0,1],[0.5,1],[1,1]];" vertex="1" parent="cnn6BXx1e72-K7ZhZsLI-44">
          <mxGeometry width="100" height="30" as="geometry" />
        </mxCell>
        <mxCell id="cnn6BXx1e72-K7ZhZsLI-46" value="" style="endArrow=none;html=1;rounded=0;entryX=0.078;entryY=0.005;entryDx=0;entryDy=0;entryPerimeter=0;exitX=0.077;exitY=1.001;exitDx=0;exitDy=0;exitPerimeter=0;" edge="1" parent="cnn6BXx1e72-K7ZhZsLI-44">
          <mxGeometry width="50" height="50" relative="1" as="geometry">
            <mxPoint x="4.699999999999932" y="30.000000000000057" as="sourcePoint" />
            <mxPoint x="4.7999999999999545" y="0.12000000000000455" as="targetPoint" />
          </mxGeometry>
        </mxCell>
        <mxCell id="cnn6BXx1e72-K7ZhZsLI-47" value="Csoportok" style="text;html=1;align=center;verticalAlign=middle;resizable=0;points=[];autosize=1;strokeColor=none;fillColor=none;" vertex="1" parent="cnn6BXx1e72-K7ZhZsLI-44">
          <mxGeometry x="29" width="80" height="30" as="geometry" />
        </mxCell>
        <mxCell id="cnn6BXx1e72-K7ZhZsLI-48" value="" style="endArrow=classic;html=1;rounded=0;exitX=0.5;exitY=1;exitDx=0;exitDy=0;" edge="1" parent="1" source="cnn6BXx1e72-K7ZhZsLI-2">
          <mxGeometry width="50" height="50" relative="1" as="geometry">
            <mxPoint x="421" y="394.00272317073177" as="sourcePoint" />
            <mxPoint x="511" y="314.00272317073177" as="targetPoint" />
            <Array as="points">
              <mxPoint x="443" y="314.00272317073177" />
            </Array>
          </mxGeometry>
        </mxCell>
        <mxCell id="cnn6BXx1e72-K7ZhZsLI-49" value="" style="endArrow=classic;html=1;rounded=0;exitX=0.5;exitY=1;exitDx=0;exitDy=0;entryX=0.061;entryY=0;entryDx=0;entryDy=0;entryPerimeter=0;" edge="1" parent="1" source="cnn6BXx1e72-K7ZhZsLI-2" target="cnn6BXx1e72-K7ZhZsLI-19">
          <mxGeometry width="50" height="50" relative="1" as="geometry">
            <mxPoint x="411" y="374.00272317073177" as="sourcePoint" />
            <mxPoint x="461" y="324.00272317073177" as="targetPoint" />
            <Array as="points">
              <mxPoint x="443" y="314.00272317073177" />
            </Array>
          </mxGeometry>
        </mxCell>
        <mxCell id="cnn6BXx1e72-K7ZhZsLI-50" value="" style="endArrow=classic;html=1;rounded=0;exitX=0.5;exitY=1;exitDx=0;exitDy=0;" edge="1" parent="1">
          <mxGeometry width="50" height="50" relative="1" as="geometry">
            <mxPoint x="443" y="344.00272317073177" as="sourcePoint" />
            <mxPoint x="511" y="364.00272317073177" as="targetPoint" />
            <Array as="points">
              <mxPoint x="443" y="364.00272317073177" />
            </Array>
          </mxGeometry>
        </mxCell>
        <mxCell id="cnn6BXx1e72-K7ZhZsLI-51" value="" style="endArrow=classic;html=1;rounded=0;entryX=0.061;entryY=0;entryDx=0;entryDy=0;entryPerimeter=0;" edge="1" parent="1">
          <mxGeometry width="50" height="50" relative="1" as="geometry">
            <mxPoint x="443" y="314.00272317073177" as="sourcePoint" />
            <mxPoint x="330" y="364.00272317073177" as="targetPoint" />
            <Array as="points">
              <mxPoint x="443" y="364.00272317073177" />
            </Array>
          </mxGeometry>
        </mxCell>
        <mxCell id="cnn6BXx1e72-K7ZhZsLI-52" value="" style="endArrow=classic;html=1;rounded=0;exitX=0.5;exitY=1;exitDx=0;exitDy=0;" edge="1" parent="1">
          <mxGeometry width="50" height="50" relative="1" as="geometry">
            <mxPoint x="443" y="394.00272317073177" as="sourcePoint" />
            <mxPoint x="511" y="414.00272317073177" as="targetPoint" />
            <Array as="points">
              <mxPoint x="443" y="414.00272317073177" />
            </Array>
          </mxGeometry>
        </mxCell>
        <mxCell id="cnn6BXx1e72-K7ZhZsLI-53" value="" style="endArrow=classic;html=1;rounded=0;entryX=0.061;entryY=0;entryDx=0;entryDy=0;entryPerimeter=0;" edge="1" parent="1">
          <mxGeometry width="50" height="50" relative="1" as="geometry">
            <mxPoint x="443" y="364.00272317073177" as="sourcePoint" />
            <mxPoint x="330" y="414.00272317073177" as="targetPoint" />
            <Array as="points">
              <mxPoint x="443" y="414.00272317073177" />
            </Array>
          </mxGeometry>
        </mxCell>
        <mxCell id="cnn6BXx1e72-K7ZhZsLI-54" value="" style="endArrow=classic;html=1;rounded=0;exitX=0.5;exitY=1;exitDx=0;exitDy=0;" edge="1" parent="1">
          <mxGeometry width="50" height="50" relative="1" as="geometry">
            <mxPoint x="443" y="444.00272317073177" as="sourcePoint" />
            <mxPoint x="511" y="464.00272317073177" as="targetPoint" />
            <Array as="points">
              <mxPoint x="443" y="464.00272317073177" />
            </Array>
          </mxGeometry>
        </mxCell>
        <mxCell id="cnn6BXx1e72-K7ZhZsLI-55" value="" style="endArrow=classic;html=1;rounded=0;entryX=0.061;entryY=0;entryDx=0;entryDy=0;entryPerimeter=0;" edge="1" parent="1">
          <mxGeometry width="50" height="50" relative="1" as="geometry">
            <mxPoint x="443" y="414.00272317073177" as="sourcePoint" />
            <mxPoint x="330" y="464.00272317073177" as="targetPoint" />
            <Array as="points">
              <mxPoint x="443" y="464.00272317073177" />
            </Array>
          </mxGeometry>
        </mxCell>
        <mxCell id="cnn6BXx1e72-K7ZhZsLI-56" value="&lt;font style=&quot;font-size: 11px;&quot;&gt;Bejelentkezési kérés&lt;/font&gt;" style="text;html=1;align=center;verticalAlign=middle;resizable=0;points=[];autosize=1;strokeColor=none;fillColor=none;rotation=-91;" vertex="1" parent="1">
          <mxGeometry x="271" y="182.00272317073177" width="120" height="30" as="geometry" />
        </mxCell>
        <mxCell id="cnn6BXx1e72-K7ZhZsLI-57" value="" style="endArrow=classic;html=1;rounded=0;exitX=0;exitY=0.5;exitDx=0;exitDy=0;entryX=0.974;entryY=0.335;entryDx=0;entryDy=0;entryPerimeter=0;" edge="1" parent="1" source="cnn6BXx1e72-K7ZhZsLI-2">
          <mxGeometry width="50" height="50" relative="1" as="geometry">
            <mxPoint x="361" y="254.00272317073177" as="sourcePoint" />
            <mxPoint x="318.65999999999997" y="115.10272317073168" as="targetPoint" />
            <Array as="points">
              <mxPoint x="351" y="253.00272317073177" />
              <mxPoint x="351" y="185.00272317073177" />
              <mxPoint x="351" y="115.00272317073177" />
            </Array>
          </mxGeometry>
        </mxCell>
        <mxCell id="cnn6BXx1e72-K7ZhZsLI-58" value="Vendég" style="ellipse;whiteSpace=wrap;html=1;" vertex="1" parent="1">
          <mxGeometry x="371" y="50.00272317073171" width="90" height="60" as="geometry" />
        </mxCell>
        <mxCell id="cnn6BXx1e72-K7ZhZsLI-59" value="" style="endArrow=classic;html=1;rounded=0;exitX=0.5;exitY=1;exitDx=0;exitDy=0;entryX=0.335;entryY=-0.023;entryDx=0;entryDy=0;entryPerimeter=0;" edge="1" parent="1" source="cnn6BXx1e72-K7ZhZsLI-58" target="cnn6BXx1e72-K7ZhZsLI-2">
          <mxGeometry width="50" height="50" relative="1" as="geometry">
            <mxPoint x="471" y="174.00272317073177" as="sourcePoint" />
            <mxPoint x="521" y="124.00272317073177" as="targetPoint" />
          </mxGeometry>
        </mxCell>
        <mxCell id="cnn6BXx1e72-K7ZhZsLI-60" value="&lt;span style=&quot;color: rgb(0, 0, 0); font-family: Helvetica; font-size: 10px; font-style: normal; font-variant-ligatures: normal; font-variant-caps: normal; font-weight: 400; letter-spacing: normal; orphans: 2; text-align: center; text-indent: 0px; text-transform: none; widows: 2; word-spacing: 0px; -webkit-text-stroke-width: 0px; background-color: rgb(251, 251, 251); text-decoration-thickness: initial; text-decoration-style: initial; text-decoration-color: initial; float: none; display: inline !important;&quot;&gt;Regisztrációs kérés&lt;/span&gt;" style="text;whiteSpace=wrap;html=1;rotation=-90;" vertex="1" parent="1">
          <mxGeometry x="357" y="137.00272317073177" width="100" height="30" as="geometry" />
        </mxCell>
        <mxCell id="cnn6BXx1e72-K7ZhZsLI-61" value="" style="endArrow=classic;html=1;rounded=0;exitX=0.401;exitY=-0.003;exitDx=0;exitDy=0;exitPerimeter=0;entryX=0.627;entryY=0.997;entryDx=0;entryDy=0;entryPerimeter=0;" edge="1" parent="1" source="cnn6BXx1e72-K7ZhZsLI-2" target="cnn6BXx1e72-K7ZhZsLI-58">
          <mxGeometry width="50" height="50" relative="1" as="geometry">
            <mxPoint x="431" y="214.00272317073177" as="sourcePoint" />
            <mxPoint x="481" y="164.00272317073177" as="targetPoint" />
          </mxGeometry>
        </mxCell>
        <mxCell id="cnn6BXx1e72-K7ZhZsLI-62" value="&lt;font style=&quot;font-size: 10px;&quot;&gt;Sikeres, sikertelen&lt;br&gt;&amp;nbsp;regisztráció&lt;/font&gt;" style="text;html=1;align=center;verticalAlign=middle;resizable=0;points=[];autosize=1;strokeColor=none;fillColor=none;rotation=-90;" vertex="1" parent="1">
          <mxGeometry x="388" y="144.00272317073177" width="110" height="40" as="geometry" />
        </mxCell>
        <mxCell id="cnn6BXx1e72-K7ZhZsLI-63" value="Belépési engedély" style="text;html=1;align=center;verticalAlign=middle;resizable=0;points=[];autosize=1;strokeColor=none;fillColor=none;fontSize=11;rotation=-90;" vertex="1" parent="1">
          <mxGeometry x="305" y="148.00272317073177" width="110" height="30" as="geometry" />
        </mxCell>
      </root>
    </mxGraphModel>
  </diagram>
</mxfile>
